<?xml version="1.0" encoding="utf-8"?>
<!-- Generator: Adobe Illustrator 24.0.1, SVG Export Plug-In . SVG Version: 6.00 Build 0)  -->
<svg version="1.1" id="Layer_1" xmlns="http://www.w3.org/2000/svg" xmlns:xlink="http://www.w3.org/1999/xlink" x="0px" y="0px"
	 viewBox="0 0 657.9 381.1" style="enable-background:new 0 0 657.9 381.1;" xml:space="preserve">
<style type="text/css">
	.st0{display:none;}
	.st1{fill:#5FE0FF;}
	.st2{fill:#FA9FB2;}
</style>
<g id="Layer_3">
	<g class="st0">
		
			<text transform="matrix(1 0 0 1 -307.9734 924.0735)" style="display:inline;fill:#FA9FB2; font-family:'DINCondensed-Bold'; font-size:377.2598px; letter-spacing:-15;">CS5</text>
		
			<text transform="matrix(1 0 0 1 85.9266 924.0735)" style="display:inline;fill:#FA9FB2; font-family:'DINCondensed-Bold'; font-size:377.2598px; letter-spacing:-1;">0x</text>
	</g>
	
		<text transform="matrix(1 0 0 1 -303.6506 982.2376)" class="st1" style="font-family:'HolidayFreeRegular'; font-size:130.7713px;">Miami</text>
</g>
<g id="Layer_2_1_">
	<path class="st1" d="M53.3,237.6c-10.9,9.4-20.4,20.9-28,33.1C17.8,282.9,11,297.4,12,312c0.3,3.5-3.7,3.1-5.8,2.1
		c-3-1.5-5.8-4.7-6.1-8.1c-1.4-19.2,8.9-37.9,19.7-53c7.2-10.1,15.6-20,25.5-27.8C46.7,227.7,51.5,235.8,53.3,237.6z M128.9,229.9
		c-0.1,0-0.1,0.1,0,0.2l0,0C129,230.1,129.5,230,128.9,229.9z M174.3,261.8c0-0.3,0-0.5-0.1-0.4
		C174.1,261.4,174.1,261.6,174.3,261.8z"/>
	<g>
		<g>
			<path class="st2" d="M138.1,194.4V211c0,8.3-1.6,16.2-4.7,23.6c-3.1,7.4-7.5,14-13,19.8s-12,10.4-19.4,13.8s-15.4,5.1-24,5.1
				c-7.3,0-14.7-1-22.3-3c-7.5-2-14.3-5.5-20.4-10.6c-6-5-11-11.5-14.9-19.4s-5.8-18-5.8-30.4V62c0-8.8,1.5-17,4.5-24.5
				s7.3-14.1,12.8-19.6S43,8,50.7,4.9s16.2-4.7,25.5-4.7c18.1,0,32.8,5.9,44.1,17.7c5.5,5.8,9.9,12.6,13,20.6
				c3.1,7.9,4.7,16.5,4.7,25.8v15.1H99.5V66.5c0-7.5-2.1-14.1-6.4-19.6S83,38.6,75.7,38.6c-9.6,0-15.9,3-19.1,8.9
				c-3.1,5.9-4.7,13.4-4.7,22.4v137.3c0,7.8,1.7,14.3,5.1,19.6c3.4,5.3,9.5,7.9,18.3,7.9c2.5,0,5.2-0.4,8.1-1.3s5.6-2.3,8.1-4.3
				c2.3-2,4.2-4.8,5.7-8.3s2.3-7.9,2.3-13.2v-13.2L138.1,194.4L138.1,194.4z"/>
			<path class="st2" d="M276.2,79.7h-38.5V71c0-8.8-2.1-16.4-6.2-22.8c-4.1-6.4-11.1-9.6-20.9-9.6c-5.3,0-9.6,1-12.8,3
				c-3.3,2-5.9,4.5-7.9,7.5c-2,3.3-3.4,7-4.2,11.1s-1.1,8.5-1.1,13c0,5.3,0.2,9.7,0.6,13.2c0.4,3.5,1.3,6.7,2.8,9.4
				c1.5,2.8,3.7,5.2,6.6,7.2c2.9,2,6.8,4,11.9,6l29.4,11.7c8.5,3.3,15.5,7.1,20.7,11.5c5.3,4.4,9.4,9.5,12.5,15.3
				c2.8,6,4.7,12.9,5.7,20.6s1.5,16.4,1.5,26.2c0,11.3-1.1,21.8-3.4,31.5s-5.9,17.9-10.9,24.7c-5.3,7-12.2,12.6-20.7,16.6
				c-8.6,4-19,6-31.3,6c-9.3,0-18-1.6-26-4.9c-8.1-3.3-15-7.8-20.8-13.6c-5.8-5.8-10.4-12.5-13.8-20.2c-3.4-7.7-5.1-16-5.1-25.1V195
				h38.5v12.1c0,7,2.1,13.4,6.2,19.1c4.1,5.7,11.1,8.5,20.9,8.5c6.5,0,11.6-0.9,15.3-2.8c3.6-1.9,6.5-4.6,8.5-8.1
				c2-3.5,3.2-7.7,3.6-12.6s0.6-10.4,0.6-16.4c0-7-0.3-12.8-0.8-17.4c-0.5-4.5-1.5-8.2-3-10.9c-1.8-2.8-4.1-5-7-6.8
				c-2.9-1.8-6.7-3.6-11.5-5.7l-27.7-11.3c-16.6-6.8-27.7-15.8-33.4-27S146,90.5,146,73.6c0-10.1,1.4-19.6,4.2-28.7
				s6.9-16.8,12.4-23.4c5.3-6.5,12-11.8,20.2-15.7S200.7,0,212,0c9.6,0,18.3,1.8,26.2,5.3s14.8,8.2,20.6,14
				c11.6,12.1,17.4,25.9,17.4,41.5L276.2,79.7L276.2,79.7z"/>
			<path class="st2" d="M396.5,2.4v36.2h-76.2V111c3.5-3.5,8-6.5,13.6-8.9c5.5-2.4,11.7-3.6,18.5-3.6c13.1,0,23.7,4,31.9,11.9
				c8.2,7.9,12.3,19.8,12.3,35.7v69.4c0,9.1-1.6,17.1-4.7,24.1s-7.4,13.1-12.6,18.1c-5.3,5-11.4,8.9-18.3,11.5s-14.1,4-21.7,4
				c-7.5,0-14.8-1.3-21.7-4c-6.9-2.6-13-6.5-18.3-11.5s-9.5-11.1-12.6-18.1s-4.7-15.1-4.7-24.1v-11.3h38.5v9.8
				c0,6.5,1.8,11.6,5.5,15.3c3.6,3.6,8.4,5.5,14.1,5.5c5.8,0,10.2-1.8,13.4-5.3c3.1-3.5,4.7-8.4,4.7-14.7v-63
				c0-5.3-1.7-9.8-5.1-13.6c-3.4-3.8-7.7-5.7-13-5.7c-3.3,0-6,0.6-8.3,1.7c-2.3,1.1-4.1,2.5-5.7,4c-1.5,1.5-2.6,3.1-3.4,4.9
				c-1.3,2.3-2,3.6-2.3,4.1h-34V2.4H396.5z"/>
			<path class="st2" d="M404.4,57.8c0-9.1,1.6-17.1,4.7-24.1s7.4-13.1,12.6-18.1c5.3-5,11.4-8.9,18.3-11.5s14.1-4,21.7-4
				c7.5,0,14.8,1.3,21.7,4c6.9,2.6,13,6.5,18.3,11.5s9.5,11.1,12.6,18.1s4.7,15.1,4.7,24.1v157.7c0,9.1-1.6,17.1-4.7,24.1
				c-3.1,7-7.4,13.1-12.6,18.1c-5.3,5-11.4,8.9-18.3,11.5c-6.9,2.6-14.1,4-21.7,4c-7.5,0-14.8-1.3-21.7-4c-6.9-2.6-13-6.5-18.3-11.5
				s-9.5-11.1-12.6-18.1s-4.7-15.1-4.7-24.1V57.8z M442.9,215.5c0,5.5,1.8,10.1,5.3,13.8c3.5,3.6,8,5.5,13.6,5.5
				c5.5,0,10.1-1.8,13.6-5.5c3.5-3.6,5.3-8.2,5.3-13.8V57.8c0-5.5-1.8-10.1-5.3-13.8c-3.5-3.6-8.1-5.5-13.6-5.5s-10.1,1.8-13.6,5.5
				c-3.5,3.6-5.3,8.2-5.3,13.8V215.5z"/>
			<path class="st2" d="M524.4,271l47.2-97.7l-44.9-93.6h40.7l23.8,54.3L615,79.7h40.7L610,173.3l47.9,97.7h-40.7l-26-58.5l-26,58.5
				H524.4z"/>
		</g>
	</g>
	<g>
		<path class="st1" d="M180.7,290.3c-4.3,10.8-9,21.4-12.8,32.4c-2.3,6.7-7.7,18.8-4.3,25.8c1.2,2.5,1.2,5.5-2.1,5.8s-6.8-3.4-8.1-6
			c-3.7-7.6-2.3-16.2-0.2-24.1c3.1-11.5,7.9-22.4,12.3-33.4c2.9-7.2,6.4-14.5,8.6-22.1c-1.3,0.8-2.6,1.7-3.9,2.7
			c-5.2,3.8-10.1,8.1-14.8,12.6c-11.6,11-22.2,23-31.9,35.7c-8.6,11.2-17,23.2-22,36.6c-2.2,6-11.8-3.4-11.7-7.2
			c0.2-8.5,4.2-16.9,7.4-24.6c5.1-12.2,10.7-24.1,16-36.2c7.1-16.2,16.5-35,17.4-53.1c-5.1,2.9-9.5,7.6-13.5,11.7
			c-16,16.3-29.7,35-43,53.5c-18.4,25.6-35.7,52.1-52.2,79c-3.4,5.5-14.1-4-11.5-8.5c16.6-29,33.5-58,46.6-88.7
			c5.8-13.6,11.1-27.7,14.9-42c1-3.7,1.9-7.5,2.2-11.4c0-0.3-0.2-1.7-0.3-3.1c-0.9,0.1-1.8,0.2-2.7,0.5c-3.4,1.2-5.9,5-9.5,5.2
			c-2.6,0.1-7.5-7.9-8-11.8c0.6-1,1.5-1.1,2.4-1.7c10.5-6.3,23.9-6.5,28.8,7.1c2.2,6.2,1.1,13.1-0.3,19.4
			c-2.2,9.9-5.5,19.7-9.1,29.3c12.2-16.5,25.2-34.1,41.3-46.7c4.1-3.2,9.2-6.8,14.6-5.5c6.3,1.6,10.3,7.8,11,13.9
			c0.9,8-1.6,16.8-3.7,24.4c-3.2,11.5-7.9,22.6-12.6,33.6c8.7-10,18-19.6,28.1-28.1c6.2-5.2,16.7-14.9,25.5-10.5
			C193.7,262.2,184.7,280,180.7,290.3z M130.3,229.3c-0.1,0-0.1,0.1,0,0.2l0,0C130.3,229.5,130.8,229.4,130.3,229.3z M175.6,261.2
			c0-0.3,0-0.5-0.1-0.4C175.4,260.8,175.4,261,175.6,261.2z"/>
		<path class="st1" d="M241.9,316c-7.2,6.1-14.8,12-22.7,17.3c-6.3,4.3-13.6,9.5-21.2,11.1c-8.7,1.8-17-6.4-17.2-15
			c-0.2-9.9,7.2-21.2,12-29.5c3.2-5.6,14.1,4,11.5,8.5c-3.8,6.6-7.2,13-9.8,20.2c-0.4,1-0.7,1.9-1.1,2.9
			c9.1-1.6,30.5-13.1,40.9-21.9C238.8,305.7,246,312.5,241.9,316z M203.8,277.6c2.9-9.6,6.8-18.7,11.6-27.5c3.1-5.6,14,3.9,11.5,8.5
			c-4.8,8.8-8.7,17.9-11.6,27.5C213.6,291.8,202.2,282.7,203.8,277.6z"/>
		<path class="st1" d="M327.7,315.9c-10.2,9.2-20.7,18.4-32.6,25.5c-5.5,3.3-12,6.8-18.6,6s-12.3-6.2-14.2-12.5
			c-1.3-4.2-0.7-8,0.5-11.8c-11.9,7.9-21.8,19.5-35.4,24.8c-4.7,1.9-11-5.7-10-10c3-13.3,10.2-27.1,21.3-35.4
			c8.8-6.6,20.2-5,26.5,3.3c1.2-0.4,2.5-0.8,3.7-1.2c1.5-0.4,3.3,0.3,5,1.5c2.6,1.7,5,4.6,5.2,6.9c0.2,0.8,0.1,1.5-0.1,2
			c-0.5,3.5-1.6,6.8-2.8,10.2c-1.2,3.5-1.8,6.7-2.5,10.1c0.2,0,0.3-0.1,0.5-0.1c13.4-1.6,37.1-19.3,45.5-26.9
			C324,304.6,331.8,312.2,327.7,315.9z M256.7,310.1c-0.1,0-0.1,0-0.2,0c-0.9,0.1-1.7,0.3-2.6,0.4c-2.5,0.6-4.6,2.3-6.6,3.9
			c-3,2.5-5.7,5.6-8,8.7c-0.1,0.1-0.2,0.2-0.2,0.4C244.9,318.7,250.5,313.8,256.7,310.1z"/>
		<path class="st1" d="M453.2,316.1c-10.8,8.7-21.9,17.3-34,24.2c-4.5,2.6-9.8,5.6-15.2,5.8c-5.6,0.2-11.1-3.7-12.6-9.2
			c-0.7-2.4-0.2-4.8,0.2-7.1c0-0.1,0-0.3,0.1-0.4c-0.6,0.2-1.2,0.5-1.5,0.7c-2.2,1.3-4.2,3-6.2,4.4c-4.2,3-8.3,5.9-12.5,8.9
			c-4.7,3.4-12-4.8-11-9.4c1.1-5,2.3-10,3.4-15c0.3-1.2,0.8-2.8,1.3-4.4c-1.9,1.1-3.7,2.3-5.1,3.1c-5,2.8-9.9,5.8-14.6,9.1
			c-8.8,6.1-16.9,13.1-24.5,20.7c-3.6,3.7-11.6-4.3-11.1-8.2c1.5-11.6,4.8-22.5,10.3-32.9c3-5.6,14,3.8,11.5,8.5
			c-1.1,2-2.1,4.1-3,6.2c10.3-8,21.4-14.9,33.2-20.2c7.4-3.3,15.8,0.8,16.8,9.5c0.4,3.5-0.7,7.4-1.7,11c1.6-1.1,3.1-2.1,4.8-3.1
			c4.3-2.5,8.9-3.8,13.7-1.8c4.7,2,8.6,6.9,9.1,12.1c0.1,1.1,0,2.1-0.1,3.2c6.1-1.5,30.6-13.4,42.1-22.7
			C451.1,305.6,457.4,312.7,453.2,316.1z"/>
		<path class="st1" d="M495,316c-7.2,6.1-14.8,12-22.7,17.3c-6.3,4.3-13.6,9.5-21.2,11.1c-8.7,1.8-17-6.4-17.2-15
			c-0.2-9.9,7.2-21.2,12-29.5c3.2-5.6,14.1,4,11.5,8.5c-3.8,6.6-7.2,13-9.8,20.2c-0.4,1-0.7,1.9-1.1,2.9
			c9.1-1.6,30.5-13.1,40.9-21.9C492,305.7,499.2,312.5,495,316z M456.9,277.6c2.9-9.6,6.8-18.7,11.6-27.5c3.1-5.6,14,3.9,11.5,8.5
			c-4.8,8.8-8.7,17.9-11.6,27.5C466.7,291.8,455.4,282.7,456.9,277.6z"/>
	</g>
</g>
</svg>
